<svg width="530" height="84" viewBox="0 0 530 84" fill="none" xmlns="http://www.w3.org/2000/svg">
<path d="M62.9275 54.293C61.2585 58.3669 58.4179 61.8551 54.7648 64.3171C51.1117 66.779 46.81 68.1042 42.4031 68.1251C28.4712 68.1251 18.5629 57.3211 18.5629 41.9972C18.5629 26.6734 28.3876 15.886 42.4031 15.886C46.2841 15.8808 50.0963 16.9096 53.4464 18.8665C56.7966 20.8234 59.5635 23.6374 61.4619 27.0185H80.2421C75.9176 11.1213 60.4644 0 41.9405 0C17.6601 0 0 17.6338 0 41.9972C0 66.3606 17.6601 84 41.9405 84C62.0024 84 78.3195 71.5706 81 54.293H62.9275Z" fill="#141414"/>
<g clip-path="url(#clip0_1_18)">
<path d="M408.949 38H367.914V49H408.847C409.268 45.3471 409.302 41.66 408.949 38Z" fill="#141414"/>
</g>
<path d="M382.25 65.2941C378.446 67.4305 374.15 68.5363 369.788 68.5024C360.448 68.5024 352.835 63.9676 348.626 56.7914C347.197 54.3304 346.186 51.6485 345.636 48.8555C345.251 46.9276 345.061 44.9659 345.069 43C345.069 28.1486 355.18 17.4919 369.267 17.4919C373.672 17.4899 377.979 18.7937 381.644 21.2388C384.584 23.1803 386.962 25.8627 388.537 29.0159H406.442C405.296 23.733 402.815 18.8325 399.237 14.7824C392.344 6.9089 381.553 2 369.369 2C344.741 2 327 19.2208 327 43C327.002 44.9579 327.129 46.9137 327.38 48.8555C327.722 51.5533 328.328 54.2112 329.186 56.7914C334.63 73.1506 349.827 84 369.369 84C382.052 84 392.627 79.3122 399.815 71.3706C403.577 67.1688 406.371 62.192 408 56.7914H390.441C388.616 60.378 385.765 63.3384 382.25 65.2941Z" fill="#141414"/>
<path d="M89 42.5C89 17.9914 106.461 1 131.997 1C157.426 1 175 17.9688 175 42.5C175 67.1161 157.432 84 131.997 84C106.461 84 89 67.1161 89 42.5ZM107.333 42.5C107.333 57.6362 117.483 68.2021 131.997 68.3152C146.517 68.3152 156.667 57.6362 156.667 42.5C156.667 27.3639 146.517 16.6848 131.997 16.6848C117.478 16.6848 107.333 27.3582 107.333 42.5Z" fill="#141414"/>
<path d="M183 4H211.792C238.317 4 256 19.3596 256 42.5028C256 65.6461 238.317 81 211.792 81H183V4ZM211.792 18.169H200.683V66.8366H211.792C227.426 66.8366 237.992 57.4244 237.992 42.5028C237.992 27.5813 227.42 18.169 211.787 18.169H211.792Z" fill="#141414"/>
<path d="M281.475 66.3986H319V81H264V4H317.93V18.6014H281.475V35.0393H313.618V48.0233H281.475V66.3986Z" fill="#141414"/>
<path d="M436.181 4V81H417.181V4H436.181Z" fill="#141414"/>
<path d="M444.181 42.5C444.181 17.9914 461.444 1 486.684 1C511.817 1 529.181 17.9688 529.181 42.5C529.181 67.1161 511.817 84 486.684 84C461.444 84 444.181 67.1161 444.181 42.5ZM462.307 42.5C462.307 57.6362 472.339 68.2021 486.684 68.3152C501.029 68.3152 511.061 57.6362 511.061 42.5C511.061 27.3639 501.029 16.6848 486.684 16.6848C472.339 16.6848 462.307 27.3582 462.307 42.5Z" fill="#141414"/>
<defs>
<clipPath id="clip0_1_18">
<rect width="41.267" height="11" fill="white" transform="translate(367.914 38)"/>
</clipPath>
</defs>
</svg>
